<?xml version="1.0" encoding="UTF-8"?><svg id="Layer_1" xmlns="http://www.w3.org/2000/svg" viewBox="200 180 1180 300"><defs><style>.cls-1{fill:#701ef9;stroke-width:0px;}</style></defs><path class="cls-1" d="m214.53,397.84c-1.26-1.26-2.66-1.53-3.62-1.53-2.56,0-5.21,1.92-5.21,5.12v.2c0,1.35.53,2.63,1.49,3.6l40.51,40.56c.98.97,2.32,1.53,3.7,1.53.97,0,1.91-.27,2.83-.86,1.35-.87,2.22-2.27,2.38-3.84.16-1.52-.37-3.01-1.46-4.09l-40.63-40.68Z"/><path class="cls-1" d="m289.16,359.19c0-3.31-2.72-6-6.07-6s-6.07,2.69-6.07,6,2.72,6,6.07,6,6.07-2.69,6.07-6"/><path class="cls-1" d="m445.14,188.83c-22.8,0-41.34,18.39-41.34,41v98.28l-2.95-2.99c-.92-.92-91.87-93.2-122.98-122.82-9.02-8.58-20.29-13.32-31.72-13.32-9.23,0-17.94,3.11-25.17,9-8.89,7.24-14.18,17.49-14.88,28.86-.72,11.7,3.64,23.38,11.95,32.04,25.02,26.07,63.71,64.16,101.11,101,35.31,34.76,71.82,70.71,95.26,95.04,8.12,8.43,19.46,13.26,31.12,13.26,9.71,0,19.07-3.4,26.36-9.57,8.28-7.01,13.37-16.78,14.35-27.53.16-1.46.24-2.93.24-4.35v-196.91c0-22.61-18.55-41-41.34-41"/><path class="cls-1" d="m287.25,396.28l-72.72-72.62c-1.26-1.26-2.66-1.53-3.62-1.53-2.56,0-5.21,1.91-5.21,5.12v.2c0,1.35.53,2.63,1.49,3.59l72.7,72.6c1.28,1.28,2.7,1.55,3.67,1.55,1.54,0,3.06-.69,4.06-1.84.69-.8,1.45-2.17,1.16-4.23-.14-.99-.69-2-1.53-2.85"/><path class="cls-1" d="m228.31,375.94c-1.26-1.26-2.66-1.53-3.62-1.53-2.56,0-5.21,1.92-5.21,5.13v.19c0,1.36.53,2.63,1.49,3.59l56.3,56.32c.98.98,2.29,1.52,3.67,1.52,1.97,0,4.28-1.15,4.97-3.72l.11-.43c.42-1.64-.1-3.45-1.37-4.71l-56.34-56.37Z"/><path class="cls-1" d="m213.71,435.99c-.84-.84-1.89-1.31-2.94-1.31-.97,0-1.85.39-2.41,1.06-.54.66-.72,1.52-.51,2.55,3.13,14.68,15.08,27.46,29.74,31.79.33.1,1.09.27,2.8.52.21.03.4.04.6.04,1.25,0,2.22-.63,2.68-1.73.43-1.04.38-2.67-1.05-4.1l-28.89-28.83Z"/><path class="cls-1" d="m264.28,347.26c1.28,1.28,2.7,1.55,3.67,1.55,2.6,0,5.28-1.94,5.28-5.19,0-1.37-.54-2.66-1.52-3.64l-57.19-57.22c-1.26-1.26-2.66-1.53-3.62-1.53-2.56,0-5.21,1.91-5.21,5.12v.2c0,1.35.53,2.63,1.49,3.6l57.09,57.12Z"/><path class="cls-1" d="m266.11,451.43c-3.35,0-6.07,2.69-6.07,6.01s2.72,6,6.07,6,6.07-2.69,6.07-6-2.72-6.01-6.07-6.01"/><path class="cls-1" d="m210.18,370.59c3.34,0,6.07-2.69,6.07-6.01s-2.72-6-6.07-6-6.07,2.69-6.07,6,2.72,6.01,6.07,6.01"/><path class="cls-1" d="m645.09,255.75c-18.98-1.07-36.82,9.11-45.54,26v-23.68h-20.7v140.77h20.7v-84.13c-.06-1.25-.05-2.49.02-3.74,1.16-21,19.13-37.09,40.14-35.93,22.69,0,36.93,14.82,36.93,38.26v85.54h20.7v-90.01c0-32.13-20.12-53.08-52.25-53.08"/><path class="cls-1" d="m830.09,368.12c-9.62,10.43-23.24,16.24-37.43,15.98-13.8.25-27.05-5.45-36.35-15.65-9.61-10.94-14.7-25.11-14.24-39.66-.51-14.48,4.59-28.6,14.24-39.41,9.07-10.63,22.38-16.69,36.35-16.56,14.3-.26,28,5.8,37.43,16.56,10.11,10.46,15.57,24.55,15.15,39.08.45,14.72-5.01,28.99-15.15,39.66m12.59-89.18c-8.12-14.41-24.59-25.18-49.68-25.51-19.15-.28-37.52,7.54-50.6,21.53-13.75,14.23-21.21,33.38-20.7,53.16-.47,19.82,6.98,39.01,20.7,53.33,13.1,13.92,31.48,21.65,50.6,21.28,24.84,0,41.4-10.6,49.68-24.84v20.87h20.7v-140.77h-20.7v20.95Z"/><path class="cls-1" d="m951.74,371.15l-46.72-113.08h-21.78l58.74,138.48c1.7,3.97,5.61,6.55,9.93,6.55s8.22-2.57,9.92-6.55l58.74-138.48h-22.11l-46.72,113.08Z"/><rect class="cls-1" x="1040.7" y="258.07" width="20.78" height="140.77"/><path class="cls-1" d="m1060.24,210.21c-5.39-5.08-13.89-4.82-18.96.58-.16.16-.32.31-.48.48-5.2,5.47-4.99,14.11.48,19.32,5.44,5.3,14.11,5.3,19.54,0,.08-.08.16-.16.24-.24,5.34-5.47,5.23-14.22-.24-19.56-.18-.2-.38-.39-.58-.58"/><path class="cls-1" d="m1159.45,255.75c-18.86-.94-36.54,9.22-45.21,26v-23.68h-20.7v140.77h20.7v-84.13c-.05-1.16-.04-2.32.01-3.47,1.02-21.01,18.89-37.22,39.9-36.19,22.69,0,36.93,14.82,36.93,38.26v85.54h20.7v-90.01c0-32.13-20.2-53.08-52.33-53.08"/><path class="cls-1" d="m1344.76,368.12c-9.62,10.43-23.24,16.24-37.43,15.98-13.8.26-27.05-5.45-36.35-15.65-9.64-10.92-14.73-25.11-14.24-39.66-.55-14.49,4.56-28.63,14.24-39.41,9.06-10.64,22.38-16.71,36.35-16.56,14.3-.26,28,5.8,37.43,16.56,9.99,10.51,15.33,24.59,14.82,39.08.53,14.67-4.8,28.94-14.82,39.66m12.59-110.13v20.95c-8.12-14.41-24.59-25.18-49.68-25.51-19.15-.3-37.53,7.52-50.6,21.53-13.75,14.23-21.21,33.38-20.7,53.16-.47,19.82,6.98,39.01,20.7,53.33,13.09,13.93,31.48,21.66,50.6,21.28,24.84,0,41.4-10.6,49.68-24.84v20.87h20.7v-140.77h-20.7Z"/></svg>